<svg width="247" height="48" viewBox="0 0 247 48" fill="none" xmlns="http://www.w3.org/2000/svg">
<path d="M36.04 26.884V23.356H47.56V26.884H36.04ZM63.3859 37.36C60.8659 37.36 58.9219 36.676 57.5539 35.308C56.1859 33.916 55.5019 32.032 55.5019 29.656V10.72H59.3899V29.62C59.3899 30.964 59.7259 32.02 60.3979 32.788C61.0699 33.556 62.0659 33.94 63.3859 33.94C64.7059 33.94 65.7019 33.556 66.3739 32.788C67.0459 32.02 67.3819 30.964 67.3819 29.62V10.72H71.2699V29.656C71.2699 32.056 70.5859 33.94 69.2179 35.308C67.8499 36.676 65.9059 37.36 63.3859 37.36ZM77.1959 37V17.2H81.0479V20.98H81.0839C81.2759 19.684 81.8279 18.676 82.7399 17.956C83.6519 17.212 84.8519 16.84 86.3399 16.84C88.3079 16.84 89.8799 17.476 91.0559 18.748C92.2319 19.996 92.8199 21.688 92.8199 23.824V37H88.9319V24.256C88.9319 22.96 88.5839 21.964 87.8879 21.268C87.1919 20.572 86.2439 20.224 85.0439 20.224C83.8199 20.224 82.8479 20.596 82.1279 21.34C81.4319 22.084 81.0839 23.14 81.0839 24.508V37H77.1959ZM105.082 37.36C103.114 37.36 101.53 36.688 100.33 35.344C99.1538 34 98.5658 32.188 98.5658 29.908V24.328C98.5658 22.024 99.1538 20.2 100.33 18.856C101.53 17.512 103.114 16.84 105.082 16.84C106.498 16.84 107.674 17.2 108.61 17.92C109.57 18.616 110.182 19.6 110.446 20.872H110.554L110.446 16.372V10.72H114.334V37H110.482V33.328H110.446C110.182 34.6 109.57 35.596 108.61 36.316C107.674 37.012 106.498 37.36 105.082 37.36ZM106.45 33.976C107.698 33.976 108.67 33.604 109.366 32.86C110.086 32.092 110.446 31.012 110.446 29.62V24.544C110.446 23.176 110.086 22.12 109.366 21.376C108.67 20.608 107.698 20.224 106.45 20.224C105.202 20.224 104.218 20.596 103.498 21.34C102.802 22.06 102.454 23.116 102.454 24.508V29.692C102.454 31.084 102.802 32.152 103.498 32.896C104.218 33.616 105.202 33.976 106.45 33.976ZM128.144 37.36C126.536 37.36 125.132 37.048 123.932 36.424C122.732 35.776 121.796 34.876 121.124 33.724C120.476 32.572 120.152 31.228 120.152 29.692V24.508C120.152 22.972 120.476 21.628 121.124 20.476C121.796 19.324 122.732 18.436 123.932 17.812C125.132 17.164 126.536 16.84 128.144 16.84C129.776 16.84 131.192 17.164 132.392 17.812C133.592 18.436 134.516 19.324 135.164 20.476C135.836 21.628 136.172 22.972 136.172 24.508V28.036H123.896V29.692C123.896 32.692 125.324 34.192 128.18 34.192C130.508 34.192 131.852 33.412 132.212 31.852H136.064C135.776 33.532 134.912 34.876 133.472 35.884C132.032 36.868 130.256 37.36 128.144 37.36ZM123.896 24.508V25.408L132.392 25.372V24.472C132.392 23.008 132.032 21.892 131.312 21.124C130.592 20.332 129.536 19.936 128.144 19.936C126.752 19.936 125.696 20.332 124.976 21.124C124.256 21.916 123.896 23.044 123.896 24.508ZM146.598 37V22.816H140.982V19.288H146.598V16.084C146.598 14.428 147.126 13.12 148.182 12.16C149.238 11.2 150.678 10.72 152.502 10.72H158.298V14.176H152.574C151.182 14.176 150.486 14.824 150.486 16.12V19.288H158.298V22.816H150.486V37H146.598ZM163.432 37V33.472H170.308V20.728H164.152V17.2H174.196V33.472H180.568V37H163.432ZM171.928 13.78C171.088 13.78 170.416 13.564 169.912 13.132C169.408 12.676 169.156 12.076 169.156 11.332C169.156 10.564 169.408 9.964 169.912 9.532C170.416 9.076 171.088 8.848 171.928 8.848C172.768 8.848 173.44 9.076 173.944 9.532C174.448 9.964 174.7 10.564 174.7 11.332C174.7 12.076 174.448 12.676 173.944 13.132C173.44 13.564 172.768 13.78 171.928 13.78ZM185.126 37V17.2H188.978V20.98H189.014C189.206 19.684 189.758 18.676 190.67 17.956C191.582 17.212 192.782 16.84 194.27 16.84C196.238 16.84 197.81 17.476 198.986 18.748C200.162 19.996 200.75 21.688 200.75 23.824V37H196.862V24.256C196.862 22.96 196.514 21.964 195.818 21.268C195.122 20.572 194.174 20.224 192.974 20.224C191.75 20.224 190.778 20.596 190.058 21.34C189.362 22.084 189.014 23.14 189.014 24.508V37H185.126ZM214.488 37.36C212.88 37.36 211.476 37.048 210.276 36.424C209.076 35.776 208.14 34.876 207.468 33.724C206.82 32.572 206.496 31.228 206.496 29.692V24.508C206.496 22.972 206.82 21.628 207.468 20.476C208.14 19.324 209.076 18.436 210.276 17.812C211.476 17.164 212.88 16.84 214.488 16.84C216.12 16.84 217.536 17.164 218.736 17.812C219.936 18.436 220.86 19.324 221.508 20.476C222.18 21.628 222.516 22.972 222.516 24.508V28.036H210.24V29.692C210.24 32.692 211.668 34.192 214.524 34.192C216.852 34.192 218.196 33.412 218.556 31.852H222.408C222.12 33.532 221.256 34.876 219.816 35.884C218.376 36.868 216.6 37.36 214.488 37.36ZM210.24 24.508V25.408L218.736 25.372V24.472C218.736 23.008 218.376 21.892 217.656 21.124C216.936 20.332 215.88 19.936 214.488 19.936C213.096 19.936 212.04 20.332 211.32 21.124C210.6 21.916 210.24 23.044 210.24 24.508ZM234.597 37.36C232.629 37.36 231.045 36.688 229.845 35.344C228.669 34 228.081 32.188 228.081 29.908V24.328C228.081 22.024 228.669 20.2 229.845 18.856C231.045 17.512 232.629 16.84 234.597 16.84C236.013 16.84 237.189 17.2 238.125 17.92C239.085 18.616 239.697 19.6 239.961 20.872H240.069L239.961 16.372V10.72H243.849V37H239.997V33.328H239.961C239.697 34.6 239.085 35.596 238.125 36.316C237.189 37.012 236.013 37.36 234.597 37.36ZM235.965 33.976C237.213 33.976 238.185 33.604 238.881 32.86C239.601 32.092 239.961 31.012 239.961 29.62V24.544C239.961 23.176 239.601 22.12 238.881 21.376C238.185 20.608 237.213 20.224 235.965 20.224C234.717 20.224 233.733 20.596 233.013 21.34C232.317 22.06 231.969 23.116 231.969 24.508V29.692C231.969 31.084 232.317 32.152 233.013 32.896C233.733 33.616 234.717 33.976 235.965 33.976Z" fill="#5E1981"/>
<path d="M24 24L6 34.3923V13.6077L24 24Z" fill="#5E1981"/>
</svg>
